<mxfile host="app.diagrams.net" modified="2021-02-13T06:48:22.524Z" agent="5.0 (Windows NT 10.0; Win64; x64) AppleWebKit/537.36 (KHTML, like Gecko) Chrome/88.0.4324.150 Safari/537.36" etag="dC_rYPFIZMjLt-2o4cdd" version="14.3.1" type="github">
  <diagram id="C5RBs43oDa-KdzZeNtuy" name="Page-1">
    <mxGraphModel dx="1422" dy="705" grid="1" gridSize="10" guides="1" tooltips="1" connect="1" arrows="1" fold="1" page="1" pageScale="1" pageWidth="1100" pageHeight="850" math="0" shadow="0">
      <root>
        <mxCell id="WIyWlLk6GJQsqaUBKTNV-0" />
        <mxCell id="WIyWlLk6GJQsqaUBKTNV-1" parent="WIyWlLk6GJQsqaUBKTNV-0" />
        <mxCell id="FOE5OWMqtQ_l2cqjy7dt-18" value="model" style="shape=folder;fontStyle=1;tabWidth=110;tabHeight=30;tabPosition=left;html=1;boundedLbl=1;labelInHeader=1;container=1;collapsible=0;recursiveResize=0;" vertex="1" parent="WIyWlLk6GJQsqaUBKTNV-1">
          <mxGeometry x="60" y="170" width="410" height="630" as="geometry" />
        </mxCell>
        <mxCell id="FOE5OWMqtQ_l2cqjy7dt-2" value="UserAccount" style="swimlane;fontStyle=1;align=center;verticalAlign=top;childLayout=stackLayout;horizontal=1;startSize=26;horizontalStack=0;resizeParent=1;resizeParentMax=0;resizeLast=0;collapsible=1;marginBottom=0;" vertex="1" parent="FOE5OWMqtQ_l2cqjy7dt-18">
          <mxGeometry x="30" y="60" width="220" height="200" as="geometry" />
        </mxCell>
        <mxCell id="FOE5OWMqtQ_l2cqjy7dt-3" value="-username:String&#xa;-password:String&#xa;-gender:String&#xa;-career:String&#xa;-birthday:String&#xa;-favBrowser:String&#xa;-profilePicture:Image" style="text;strokeColor=none;fillColor=none;align=left;verticalAlign=top;spacingLeft=4;spacingRight=4;overflow=hidden;rotatable=0;points=[[0,0.5],[1,0.5]];portConstraint=eastwest;" vertex="1" parent="FOE5OWMqtQ_l2cqjy7dt-2">
          <mxGeometry y="26" width="220" height="104" as="geometry" />
        </mxCell>
        <mxCell id="FOE5OWMqtQ_l2cqjy7dt-4" value="" style="line;strokeWidth=1;fillColor=none;align=left;verticalAlign=middle;spacingTop=-1;spacingLeft=3;spacingRight=3;rotatable=0;labelPosition=right;points=[];portConstraint=eastwest;" vertex="1" parent="FOE5OWMqtQ_l2cqjy7dt-2">
          <mxGeometry y="130" width="220" height="10" as="geometry" />
        </mxCell>
        <mxCell id="FOE5OWMqtQ_l2cqjy7dt-23" value="+UserAccount()&lt;br&gt;+getUsername():String&lt;br&gt;+getPassword():String&lt;br&gt;+getProfilePic():Image" style="text;html=1;strokeColor=none;fillColor=none;align=left;verticalAlign=middle;whiteSpace=wrap;rounded=0;" vertex="1" parent="FOE5OWMqtQ_l2cqjy7dt-2">
          <mxGeometry y="140" width="220" height="60" as="geometry" />
        </mxCell>
        <mxCell id="FOE5OWMqtQ_l2cqjy7dt-24" value="Classroom" style="swimlane;fontStyle=1;align=center;verticalAlign=top;childLayout=stackLayout;horizontal=1;startSize=26;horizontalStack=0;resizeParent=1;resizeParentMax=0;resizeLast=0;collapsible=1;marginBottom=0;" vertex="1" parent="FOE5OWMqtQ_l2cqjy7dt-18">
          <mxGeometry x="30" y="340" width="220" height="170" as="geometry" />
        </mxCell>
        <mxCell id="FOE5OWMqtQ_l2cqjy7dt-25" value="-users:ArrayList&lt;UserAccount&gt;" style="text;strokeColor=none;fillColor=none;align=left;verticalAlign=top;spacingLeft=4;spacingRight=4;overflow=hidden;rotatable=0;points=[[0,0.5],[1,0.5]];portConstraint=eastwest;" vertex="1" parent="FOE5OWMqtQ_l2cqjy7dt-24">
          <mxGeometry y="26" width="220" height="34" as="geometry" />
        </mxCell>
        <mxCell id="FOE5OWMqtQ_l2cqjy7dt-26" value="" style="line;strokeWidth=1;fillColor=none;align=left;verticalAlign=middle;spacingTop=-1;spacingLeft=3;spacingRight=3;rotatable=0;labelPosition=right;points=[];portConstraint=eastwest;" vertex="1" parent="FOE5OWMqtQ_l2cqjy7dt-24">
          <mxGeometry y="60" width="220" height="10" as="geometry" />
        </mxCell>
        <mxCell id="FOE5OWMqtQ_l2cqjy7dt-27" value="+Classroom()&lt;br&gt;+addUser(UserAccount):void&lt;br&gt;+authenticate(String, String):boolean&lt;br&gt;+getUser(String):int&lt;br&gt;+getUsers():ArrayList&amp;lt;UserAccount&amp;gt;" style="text;html=1;strokeColor=none;fillColor=none;align=left;verticalAlign=middle;whiteSpace=wrap;rounded=0;" vertex="1" parent="FOE5OWMqtQ_l2cqjy7dt-24">
          <mxGeometry y="70" width="220" height="100" as="geometry" />
        </mxCell>
        <mxCell id="FOE5OWMqtQ_l2cqjy7dt-33" value="-users" style="endArrow=block;endFill=1;html=1;edgeStyle=orthogonalEdgeStyle;align=left;verticalAlign=top;exitX=0.5;exitY=0;exitDx=0;exitDy=0;" edge="1" parent="FOE5OWMqtQ_l2cqjy7dt-18" source="FOE5OWMqtQ_l2cqjy7dt-24" target="FOE5OWMqtQ_l2cqjy7dt-23">
          <mxGeometry x="-0.5" relative="1" as="geometry">
            <mxPoint x="230" y="340" as="sourcePoint" />
            <mxPoint x="390" y="340" as="targetPoint" />
            <mxPoint as="offset" />
          </mxGeometry>
        </mxCell>
        <mxCell id="FOE5OWMqtQ_l2cqjy7dt-34" value="*" style="edgeLabel;resizable=0;html=1;align=left;verticalAlign=bottom;" connectable="0" vertex="1" parent="FOE5OWMqtQ_l2cqjy7dt-33">
          <mxGeometry x="-1" relative="1" as="geometry">
            <mxPoint x="10" y="-60" as="offset" />
          </mxGeometry>
        </mxCell>
        <mxCell id="FOE5OWMqtQ_l2cqjy7dt-20" value="ui" style="shape=folder;fontStyle=1;tabWidth=110;tabHeight=30;tabPosition=left;html=1;boundedLbl=1;labelInHeader=1;container=1;collapsible=0;recursiveResize=0;" vertex="1" parent="WIyWlLk6GJQsqaUBKTNV-1">
          <mxGeometry x="550" y="180" width="510" height="600" as="geometry" />
        </mxCell>
        <mxCell id="FOE5OWMqtQ_l2cqjy7dt-10" value="ClassroomGUI" style="swimlane;fontStyle=1;align=center;verticalAlign=top;childLayout=stackLayout;horizontal=1;startSize=26;horizontalStack=0;resizeParent=1;resizeParentMax=0;resizeLast=0;collapsible=1;marginBottom=0;" vertex="1" parent="FOE5OWMqtQ_l2cqjy7dt-20">
          <mxGeometry x="30" y="60" width="250" height="150" as="geometry" />
        </mxCell>
        <mxCell id="FOE5OWMqtQ_l2cqjy7dt-11" value="-classroom:Classroom&#xa;imgFile:Image&#xa;genderToggle:ToggleGroup" style="text;strokeColor=none;fillColor=none;align=left;verticalAlign=top;spacingLeft=4;spacingRight=4;overflow=hidden;rotatable=0;points=[[0,0.5],[1,0.5]];portConstraint=eastwest;" vertex="1" parent="FOE5OWMqtQ_l2cqjy7dt-10">
          <mxGeometry y="26" width="250" height="74" as="geometry" />
        </mxCell>
        <mxCell id="FOE5OWMqtQ_l2cqjy7dt-12" value="" style="line;strokeWidth=1;fillColor=none;align=left;verticalAlign=middle;spacingTop=-1;spacingLeft=3;spacingRight=3;rotatable=0;labelPosition=right;points=[];portConstraint=eastwest;" vertex="1" parent="FOE5OWMqtQ_l2cqjy7dt-10">
          <mxGeometry y="100" width="250" height="8" as="geometry" />
        </mxCell>
        <mxCell id="FOE5OWMqtQ_l2cqjy7dt-13" value="+ClassroomGUI(Classroom)&#xa;+InitializeTableView():void" style="text;strokeColor=none;fillColor=none;align=left;verticalAlign=top;spacingLeft=4;spacingRight=4;overflow=hidden;rotatable=0;points=[[0,0.5],[1,0.5]];portConstraint=eastwest;" vertex="1" parent="FOE5OWMqtQ_l2cqjy7dt-10">
          <mxGeometry y="108" width="250" height="42" as="geometry" />
        </mxCell>
        <mxCell id="FOE5OWMqtQ_l2cqjy7dt-14" value="Main" style="swimlane;fontStyle=1;align=center;verticalAlign=top;childLayout=stackLayout;horizontal=1;startSize=26;horizontalStack=0;resizeParent=1;resizeParentMax=0;resizeLast=0;collapsible=1;marginBottom=0;" vertex="1" parent="FOE5OWMqtQ_l2cqjy7dt-20">
          <mxGeometry x="30" y="420" width="250" height="146" as="geometry" />
        </mxCell>
        <mxCell id="FOE5OWMqtQ_l2cqjy7dt-15" value="-classroom:Classroom&#xa;-classGUI:ClassroomGUI" style="text;strokeColor=none;fillColor=none;align=left;verticalAlign=top;spacingLeft=4;spacingRight=4;overflow=hidden;rotatable=0;points=[[0,0.5],[1,0.5]];portConstraint=eastwest;" vertex="1" parent="FOE5OWMqtQ_l2cqjy7dt-14">
          <mxGeometry y="26" width="250" height="52" as="geometry" />
        </mxCell>
        <mxCell id="FOE5OWMqtQ_l2cqjy7dt-16" value="" style="line;strokeWidth=1;fillColor=none;align=left;verticalAlign=middle;spacingTop=-1;spacingLeft=3;spacingRight=3;rotatable=0;labelPosition=right;points=[];portConstraint=eastwest;" vertex="1" parent="FOE5OWMqtQ_l2cqjy7dt-14">
          <mxGeometry y="78" width="250" height="8" as="geometry" />
        </mxCell>
        <mxCell id="FOE5OWMqtQ_l2cqjy7dt-17" value="+Main()&#xa;+main(String[]):void&#xa;+Start(Stage):void" style="text;strokeColor=none;fillColor=none;align=left;verticalAlign=top;spacingLeft=4;spacingRight=4;overflow=hidden;rotatable=0;points=[[0,0.5],[1,0.5]];portConstraint=eastwest;" vertex="1" parent="FOE5OWMqtQ_l2cqjy7dt-14">
          <mxGeometry y="86" width="250" height="60" as="geometry" />
        </mxCell>
        <mxCell id="FOE5OWMqtQ_l2cqjy7dt-44" value="- classGUI" style="endArrow=block;endFill=1;html=1;edgeStyle=orthogonalEdgeStyle;align=left;verticalAlign=top;entryX=0.504;entryY=0.976;entryDx=0;entryDy=0;entryPerimeter=0;" edge="1" parent="FOE5OWMqtQ_l2cqjy7dt-20" target="FOE5OWMqtQ_l2cqjy7dt-13">
          <mxGeometry x="-0.8104" y="-14" relative="1" as="geometry">
            <mxPoint x="156" y="420" as="sourcePoint" />
            <mxPoint x="154" y="220" as="targetPoint" />
            <mxPoint as="offset" />
          </mxGeometry>
        </mxCell>
        <mxCell id="FOE5OWMqtQ_l2cqjy7dt-45" value="1" style="edgeLabel;resizable=0;html=1;align=left;verticalAlign=bottom;" connectable="0" vertex="1" parent="FOE5OWMqtQ_l2cqjy7dt-44">
          <mxGeometry x="-1" relative="1" as="geometry">
            <mxPoint x="14" y="-180" as="offset" />
          </mxGeometry>
        </mxCell>
        <mxCell id="FOE5OWMqtQ_l2cqjy7dt-46" value="user-view.fxml" style="html=1;" vertex="1" parent="FOE5OWMqtQ_l2cqjy7dt-20">
          <mxGeometry x="360" y="95" width="110" height="50" as="geometry" />
        </mxCell>
        <mxCell id="FOE5OWMqtQ_l2cqjy7dt-47" value="create-account.fxml" style="html=1;" vertex="1" parent="FOE5OWMqtQ_l2cqjy7dt-20">
          <mxGeometry x="360" y="205" width="110" height="50" as="geometry" />
        </mxCell>
        <mxCell id="FOE5OWMqtQ_l2cqjy7dt-48" value="login.fxml" style="html=1;" vertex="1" parent="FOE5OWMqtQ_l2cqjy7dt-20">
          <mxGeometry x="360" y="315" width="110" height="50" as="geometry" />
        </mxCell>
        <mxCell id="FOE5OWMqtQ_l2cqjy7dt-49" value="main-pane.fxml" style="html=1;" vertex="1" parent="FOE5OWMqtQ_l2cqjy7dt-20">
          <mxGeometry x="360" y="435" width="110" height="50" as="geometry" />
        </mxCell>
        <mxCell id="FOE5OWMqtQ_l2cqjy7dt-50" value="" style="endArrow=open;endFill=1;endSize=12;html=1;exitX=1;exitY=0.269;exitDx=0;exitDy=0;exitPerimeter=0;entryX=0;entryY=0.5;entryDx=0;entryDy=0;" edge="1" parent="FOE5OWMqtQ_l2cqjy7dt-20" source="FOE5OWMqtQ_l2cqjy7dt-15" target="FOE5OWMqtQ_l2cqjy7dt-49">
          <mxGeometry width="160" relative="1" as="geometry">
            <mxPoint x="-260" y="330" as="sourcePoint" />
            <mxPoint x="-100" y="330" as="targetPoint" />
          </mxGeometry>
        </mxCell>
        <mxCell id="FOE5OWMqtQ_l2cqjy7dt-51" value="" style="endArrow=open;endFill=1;endSize=12;html=1;entryX=0;entryY=0.5;entryDx=0;entryDy=0;exitX=1.004;exitY=0.762;exitDx=0;exitDy=0;exitPerimeter=0;" edge="1" parent="FOE5OWMqtQ_l2cqjy7dt-20" source="FOE5OWMqtQ_l2cqjy7dt-13" target="FOE5OWMqtQ_l2cqjy7dt-48">
          <mxGeometry width="160" relative="1" as="geometry">
            <mxPoint x="279" y="201" as="sourcePoint" />
            <mxPoint x="-100" y="330" as="targetPoint" />
            <Array as="points">
              <mxPoint x="310" y="201" />
              <mxPoint x="310" y="340" />
            </Array>
          </mxGeometry>
        </mxCell>
        <mxCell id="FOE5OWMqtQ_l2cqjy7dt-52" value="" style="endArrow=open;endFill=1;endSize=12;html=1;entryX=0;entryY=0.5;entryDx=0;entryDy=0;exitX=1.004;exitY=0.959;exitDx=0;exitDy=0;exitPerimeter=0;" edge="1" parent="FOE5OWMqtQ_l2cqjy7dt-20" source="FOE5OWMqtQ_l2cqjy7dt-11" target="FOE5OWMqtQ_l2cqjy7dt-47">
          <mxGeometry width="160" relative="1" as="geometry">
            <mxPoint x="282" y="166" as="sourcePoint" />
            <mxPoint x="-100" y="330" as="targetPoint" />
            <Array as="points">
              <mxPoint x="330" y="157" />
              <mxPoint x="330" y="230" />
            </Array>
          </mxGeometry>
        </mxCell>
        <mxCell id="FOE5OWMqtQ_l2cqjy7dt-53" value="" style="endArrow=open;endFill=1;endSize=12;html=1;entryX=0;entryY=0.5;entryDx=0;entryDy=0;" edge="1" parent="FOE5OWMqtQ_l2cqjy7dt-20" target="FOE5OWMqtQ_l2cqjy7dt-46">
          <mxGeometry width="160" relative="1" as="geometry">
            <mxPoint x="280" y="120" as="sourcePoint" />
            <mxPoint x="-100" y="330" as="targetPoint" />
          </mxGeometry>
        </mxCell>
        <mxCell id="FOE5OWMqtQ_l2cqjy7dt-40" value="- classroom" style="endArrow=block;endFill=1;html=1;edgeStyle=orthogonalEdgeStyle;align=left;verticalAlign=top;entryX=1;entryY=0.25;entryDx=0;entryDy=0;" edge="1" parent="WIyWlLk6GJQsqaUBKTNV-1" source="FOE5OWMqtQ_l2cqjy7dt-11" target="FOE5OWMqtQ_l2cqjy7dt-27">
          <mxGeometry x="0.7651" y="-35" relative="1" as="geometry">
            <mxPoint x="290" y="510" as="sourcePoint" />
            <mxPoint x="450" y="510" as="targetPoint" />
            <mxPoint as="offset" />
          </mxGeometry>
        </mxCell>
        <mxCell id="FOE5OWMqtQ_l2cqjy7dt-41" value="1" style="edgeLabel;resizable=0;html=1;align=left;verticalAlign=bottom;" connectable="0" vertex="1" parent="FOE5OWMqtQ_l2cqjy7dt-40">
          <mxGeometry x="-1" relative="1" as="geometry">
            <mxPoint x="-260" y="292" as="offset" />
          </mxGeometry>
        </mxCell>
        <mxCell id="FOE5OWMqtQ_l2cqjy7dt-42" value="- classroom" style="endArrow=block;endFill=1;html=1;edgeStyle=orthogonalEdgeStyle;align=left;verticalAlign=top;entryX=1.005;entryY=0.68;entryDx=0;entryDy=0;entryPerimeter=0;" edge="1" parent="WIyWlLk6GJQsqaUBKTNV-1" target="FOE5OWMqtQ_l2cqjy7dt-27">
          <mxGeometry x="0.4815" y="-29" relative="1" as="geometry">
            <mxPoint x="580" y="648" as="sourcePoint" />
            <mxPoint x="450" y="510" as="targetPoint" />
            <mxPoint as="offset" />
          </mxGeometry>
        </mxCell>
        <mxCell id="FOE5OWMqtQ_l2cqjy7dt-43" value="1" style="edgeLabel;resizable=0;html=1;align=left;verticalAlign=bottom;" connectable="0" vertex="1" parent="FOE5OWMqtQ_l2cqjy7dt-42">
          <mxGeometry x="-1" relative="1" as="geometry">
            <mxPoint x="-260" y="-9" as="offset" />
          </mxGeometry>
        </mxCell>
      </root>
    </mxGraphModel>
  </diagram>
</mxfile>
